[img]http://img35.imageshack.us/img35/6416/postertp.jpg [/img]
[code]
                       Sucker Punch 2011 720p TS READNFO XViD - IMAGiNE
********************************************************************************************************************

Ripper ...........: IMAGiNE                                      IMDB Rating.......: 6.8/10                             
Video Codec.......: XVID                                         Release Date......: 07/04/11
Audio Codec.......: MP3                                          Theatre Date......:03/25/11
Audio Bitrate.....: 128                                          Runtime.......: 1h 44mn
Subtitles.........: NIL                                          Language..........: ENGLISH
Resolution......: 1280 x 566                                     IMDb URL.......... http://www.imdb.com/title/tt0978764/


DETAILS:

Video
ID                               : 0
Format                           : MPEG-4 Visual
Format profile                   : Advanced Simple@L5
Format settings, BVOP            : 2
Format settings, QPel            : No
Format settings, GMC             : No warppoints
Format settings, Matrix          : Default (MPEG)
Muxing mode                      : Packed bitstream
Codec ID                         : XVID
Codec ID/Hint                    : XviD
Duration                         : 1h 44mn
Bit rate                         : 5 963 Kbps
Width                            : 1 280 pixels
Height                           : 566 pixels
Display aspect ratio             : 2.25:1
Frame rate                       : 25.000 fps
Color space                      : YUV
Chroma subsampling               : 4:2:0
Bit depth                        : 8 bits
Scan type                        : Progressive
Compression mode                 : Lossy
Bits/(Pixel*Frame)               : 0.329
Stream size                      : 4.34 GiB (98%)
Writing library                  : XviD 61

Audio
ID                               : 1
Format                           : MPEG Audio
Format version                   : Version 1
Format profile                   : Layer 3
Mode                             : Joint stereo
Mode extension                   : MS Stereo
Codec ID                         : 55
Codec ID/Hint                    : MP3
Duration                         : 1h 44mn
Bit rate mode                    : Constant
Bit rate                         : 128 Kbps
Channel(s)                       : 2 channels
Sampling rate                    : 44.1 KHz
Compression mode                 : Lossy
Stream size                      : 95.3 MiB (2%)
Alignment                        : Split accross interleaves
Interleave, duration             : 40 ms (1.00 video frame)
Writing library                  : LAME3.98r

PLOT:A young girl is institutionalized by her abusive stepfather. Retreating to an alternative reality as a coping strategy, she envisions a plan which will help her escape from the mental facility.

SOURCES:

VIDEO: ADDiCTED......
AUDIO: Thanx Matey...

NOTES:

IMAGiNE bringing you another release..........
Sucker Punch 2011 720p TS......
Now the source files were very nice but was interlaced and had an angle to it.......
So we cropped, rotated and resized also adjusted the brightness, rgb, and all of that 
English subs hardcoded in yellow when needed.....
The audio is same LiNE from V1 filtered, synced, and muxed to our encode......
Enjoy folks!
[/code]
Screens:
[img]http://img20.imageshack.us/img20/4935/63311888.jpg[/img]
[img]http://img52.imageshack.us/img52/4401/34638800.jpg[/img]
[img]http://img714.imageshack.us/img714/8505/14957002.jpg[/img]
[img]http://img708.imageshack.us/img708/9489/45976028.jpg[/img]
[img]http://img707.imageshack.us/img707/6905/37148953.jpg[/img]